<svg width="282" height="20" viewBox="0 0 282 20" fill="none" xmlns="http://www.w3.org/2000/svg">
<path d="M71.436 15.112C70.4467 15.112 69.5553 14.8973 68.762 14.468C67.9687 14.0293 67.3433 13.4273 66.886 12.662C66.438 11.8967 66.214 11.0427 66.214 10.1C66.214 9.15733 66.438 8.30333 66.886 7.538C67.3433 6.77267 67.9687 6.17533 68.762 5.746C69.5553 5.30733 70.4467 5.088 71.436 5.088C72.416 5.088 73.3027 5.30733 74.096 5.746C74.8893 6.17533 75.51 6.77267 75.958 7.538C76.406 8.294 76.63 9.148 76.63 10.1C76.63 11.052 76.406 11.9107 75.958 12.676C75.51 13.432 74.8893 14.0293 74.096 14.468C73.3027 14.8973 72.416 15.112 71.436 15.112ZM71.436 13.866C72.1547 13.866 72.7987 13.7027 73.368 13.376C73.9467 13.0493 74.3993 12.6013 74.726 12.032C75.062 11.4533 75.23 10.8093 75.23 10.1C75.23 9.39067 75.062 8.75133 74.726 8.182C74.3993 7.60333 73.9467 7.15067 73.368 6.824C72.7987 6.49733 72.1547 6.334 71.436 6.334C70.7173 6.334 70.064 6.49733 69.476 6.824C68.8973 7.15067 68.44 7.60333 68.104 8.182C67.7773 8.75133 67.614 9.39067 67.614 10.1C67.614 10.8093 67.7773 11.4533 68.104 12.032C68.44 12.6013 68.8973 13.0493 69.476 13.376C70.064 13.7027 70.7173 13.866 71.436 13.866ZM85.5432 7.58V15H84.1992V8.756H80.0132V15H78.6692V7.58H85.5432ZM91.4898 10.1C92.4231 10.1093 93.1371 10.324 93.6318 10.744C94.1265 11.164 94.3738 11.7567 94.3738 12.522C94.3738 13.3247 94.1031 13.9453 93.5618 14.384C93.0298 14.8133 92.2645 15.0233 91.2658 15.014L88.1438 15V7.58H89.4878V10.086L91.4898 10.1ZM95.4798 7.58H96.8238V15H95.4798V7.58ZM91.1678 13.992C91.7745 14.0013 92.2318 13.88 92.5398 13.628C92.8571 13.376 93.0158 13.0027 93.0158 12.508C93.0158 12.0227 92.8618 11.668 92.5538 11.444C92.2458 11.22 91.7838 11.1033 91.1678 11.094L89.4878 11.066V13.978L91.1678 13.992ZM104.967 8.756H102.251V15H100.907V8.756H98.1908V7.58H104.967V8.756ZM109.939 9.05C110.583 9.05 111.157 9.17133 111.661 9.414C112.174 9.65667 112.576 10.0067 112.865 10.464C113.154 10.912 113.299 11.43 113.299 12.018C113.299 12.634 113.145 13.1753 112.837 13.642C112.538 14.1087 112.123 14.4727 111.591 14.734C111.068 14.986 110.48 15.112 109.827 15.112C108.511 15.112 107.494 14.6873 106.775 13.838C106.066 12.9887 105.711 11.7847 105.711 10.226C105.711 9.134 105.902 8.20533 106.285 7.44C106.677 6.66533 107.218 6.082 107.909 5.69C108.609 5.28867 109.421 5.088 110.345 5.088C110.821 5.088 111.269 5.13933 111.689 5.242C112.109 5.33533 112.473 5.47533 112.781 5.662L112.249 6.754C111.782 6.446 111.157 6.292 110.373 6.292C109.356 6.292 108.558 6.60933 107.979 7.244C107.4 7.86933 107.111 8.784 107.111 9.988C107.111 10.1373 107.116 10.254 107.125 10.338C107.405 9.918 107.788 9.60067 108.273 9.386C108.768 9.162 109.323 9.05 109.939 9.05ZM109.771 13.978C110.415 13.978 110.938 13.8053 111.339 13.46C111.74 13.1147 111.941 12.6527 111.941 12.074C111.941 11.4953 111.736 11.038 111.325 10.702C110.924 10.3567 110.382 10.184 109.701 10.184C109.262 10.184 108.87 10.268 108.525 10.436C108.189 10.604 107.923 10.8327 107.727 11.122C107.54 11.4113 107.447 11.7333 107.447 12.088C107.447 12.4333 107.536 12.7507 107.713 13.04C107.9 13.32 108.166 13.5487 108.511 13.726C108.866 13.894 109.286 13.978 109.771 13.978ZM125.111 7.58V15H123.767V8.756H120.575L120.491 10.408C120.445 11.4067 120.356 12.242 120.225 12.914C120.095 13.5767 119.88 14.1087 119.581 14.51C119.283 14.9113 118.867 15.112 118.335 15.112C118.093 15.112 117.817 15.07 117.509 14.986L117.593 13.852C117.715 13.88 117.827 13.894 117.929 13.894C118.303 13.894 118.583 13.7307 118.769 13.404C118.956 13.0773 119.077 12.69 119.133 12.242C119.189 11.794 119.241 11.1547 119.287 10.324L119.413 7.58H125.111ZM134.416 11.332C134.416 11.4347 134.407 11.57 134.388 11.738H128.368C128.452 12.3913 128.737 12.9187 129.222 13.32C129.717 13.712 130.328 13.908 131.056 13.908C131.943 13.908 132.657 13.6093 133.198 13.012L133.94 13.88C133.604 14.272 133.184 14.5707 132.68 14.776C132.186 14.9813 131.63 15.084 131.014 15.084C130.23 15.084 129.535 14.9253 128.928 14.608C128.322 14.2813 127.85 13.8287 127.514 13.25C127.188 12.6713 127.024 12.018 127.024 11.29C127.024 10.5713 127.183 9.92267 127.5 9.344C127.827 8.76533 128.27 8.31733 128.83 8C129.4 7.67333 130.039 7.51 130.748 7.51C131.458 7.51 132.088 7.67333 132.638 8C133.198 8.31733 133.632 8.76533 133.94 9.344C134.258 9.92267 134.416 10.5853 134.416 11.332ZM130.748 8.644C130.104 8.644 129.563 8.84 129.124 9.232C128.695 9.624 128.443 10.1373 128.368 10.772H133.128C133.054 10.1467 132.797 9.638 132.358 9.246C131.929 8.84467 131.392 8.644 130.748 8.644ZM141.717 8.756H139.001V15H137.657V8.756H134.941V7.58H141.717V8.756Z" fill="#A2A7B1"/>
<circle cx="152.5" cy="10" r="2" fill="#A2A7B1"/>
<path d="M171.698 12.592H169.836V15H168.478V12.592H163.032V11.612L168.044 5.2H169.556L164.754 11.388H168.52V9.26H169.836V11.388H171.698V12.592ZM176.125 9.316C177.087 9.40933 177.819 9.708 178.323 10.212C178.827 10.7067 179.079 11.3413 179.079 12.116C179.079 12.676 178.939 13.1847 178.659 13.642C178.379 14.09 177.959 14.4493 177.399 14.72C176.849 14.9813 176.172 15.112 175.369 15.112C174.669 15.112 173.997 15.0093 173.353 14.804C172.709 14.5893 172.182 14.2953 171.771 13.922L172.415 12.816C172.751 13.1333 173.181 13.39 173.703 13.586C174.226 13.7727 174.781 13.866 175.369 13.866C176.097 13.866 176.662 13.712 177.063 13.404C177.474 13.096 177.679 12.6713 177.679 12.13C177.679 11.5887 177.479 11.1687 177.077 10.87C176.676 10.5713 176.069 10.422 175.257 10.422H174.473V9.442L176.937 6.418H172.219V5.2H178.687V6.152L176.125 9.316ZM190.235 8.756H186.119V15H184.775V7.58H190.235V8.756ZM194.46 15.084C193.723 15.084 193.06 14.9207 192.472 14.594C191.884 14.2673 191.422 13.8193 191.086 13.25C190.76 12.6713 190.596 12.018 190.596 11.29C190.596 10.562 190.76 9.91333 191.086 9.344C191.422 8.76533 191.884 8.31733 192.472 8C193.06 7.67333 193.723 7.51 194.46 7.51C195.198 7.51 195.856 7.67333 196.434 8C197.022 8.31733 197.48 8.76533 197.806 9.344C198.142 9.91333 198.31 10.562 198.31 11.29C198.31 12.018 198.142 12.6713 197.806 13.25C197.48 13.8193 197.022 14.2673 196.434 14.594C195.856 14.9207 195.198 15.084 194.46 15.084ZM194.46 13.908C194.936 13.908 195.361 13.8007 195.734 13.586C196.117 13.362 196.416 13.054 196.63 12.662C196.845 12.2607 196.952 11.8033 196.952 11.29C196.952 10.7767 196.845 10.324 196.63 9.932C196.416 9.53067 196.117 9.22267 195.734 9.008C195.361 8.79333 194.936 8.686 194.46 8.686C193.984 8.686 193.555 8.79333 193.172 9.008C192.799 9.22267 192.5 9.53067 192.276 9.932C192.062 10.324 191.954 10.7767 191.954 11.29C191.954 11.8033 192.062 12.2607 192.276 12.662C192.5 13.054 192.799 13.362 193.172 13.586C193.555 13.8007 193.984 13.908 194.46 13.908ZM207.743 13.824V16.722H206.483V15H200.281V16.722H199.007V13.824H199.399C199.875 13.796 200.201 13.46 200.379 12.816C200.556 12.172 200.677 11.262 200.743 10.086L200.855 7.58H206.609V13.824H207.743ZM201.975 10.184C201.937 11.1173 201.858 11.892 201.737 12.508C201.625 13.1147 201.415 13.5533 201.107 13.824H205.265V8.756H202.045L201.975 10.184ZM212.139 7.51C213.166 7.51 213.95 7.762 214.491 8.266C215.042 8.77 215.317 9.52133 215.317 10.52V15H214.043V14.02C213.819 14.3653 213.497 14.6313 213.077 14.818C212.667 14.9953 212.177 15.084 211.607 15.084C210.777 15.084 210.109 14.8833 209.605 14.482C209.111 14.0807 208.863 13.5533 208.863 12.9C208.863 12.2467 209.101 11.724 209.577 11.332C210.053 10.9307 210.809 10.73 211.845 10.73H213.973V10.464C213.973 9.88533 213.805 9.442 213.469 9.134C213.133 8.826 212.639 8.672 211.985 8.672C211.547 8.672 211.117 8.74667 210.697 8.896C210.277 9.036 209.923 9.22733 209.633 9.47L209.073 8.462C209.456 8.154 209.913 7.92067 210.445 7.762C210.977 7.594 211.542 7.51 212.139 7.51ZM211.831 14.048C212.345 14.048 212.788 13.936 213.161 13.712C213.535 13.4787 213.805 13.152 213.973 12.732V11.696H211.901C210.763 11.696 210.193 12.0787 210.193 12.844C210.193 13.2173 210.338 13.5113 210.627 13.726C210.917 13.9407 211.318 14.048 211.831 14.048Z" fill="#A2A7B1"/>
</svg>
